<?xml version="1.0" encoding="UTF-8"?>
<svg version="1.1" xmlns="http://www.w3.org/2000/svg" width="733" height="388">
<path d="M0 0 C241.89 0 483.78 0 733 0 C733 128.04 733 256.08 733 388 C491.11 388 249.22 388 0 388 C0 259.96 0 131.92 0 0 Z " fill="#FEFEFD" transform="translate(0,0)"/>
<path d="M0 0 C0.66 0.66 1.32 1.32 2 2 C2.33 0.35 2.66 -1.3 3 -3 C8.28 -3 13.56 -3 19 -3 C19.0680727 4.91109447 19.12298583 12.82195704 19.15543652 20.73326683 C19.17101978 24.40773878 19.19212165 28.08199806 19.22631836 31.75634766 C19.25917666 35.30956709 19.27690804 38.86258338 19.28463173 42.41594315 C19.29278316 44.41541501 19.31615924 46.4148064 19.33988953 48.41415405 C19.34190108 59.42684301 17.9829722 68.8950173 10 77 C2.36631747 83.44914558 -6.42304769 86.65767532 -16.4296875 86.28125 C-26.62082035 85.16611084 -33.77397767 81.23058951 -41.625 74.875 C-43 73 -43 73 -42.80859375 71.1171875 C-41.80860065 68.49884809 -40.466764 67.16857687 -38.4375 65.25 C-37.79683594 64.63640625 -37.15617188 64.0228125 -36.49609375 63.390625 C-35.75552734 62.70226562 -35.75552734 62.70226562 -35 62 C-31.21205797 63.75414765 -28.17133151 66.09390674 -24.90234375 68.66015625 C-20.40907258 71.82482157 -15.26546324 71.53824735 -10 71 C-6.05678775 69.94534187 -3.12993206 68.4714652 -0.6171875 65.19921875 C1.8761912 60.70939348 2.42300857 57.07610281 2 52 C1.175 52.61875 0.35 53.2375 -0.5 53.875 C-7.05208498 58.21229569 -14.78057769 58.9305291 -22.41015625 57.5703125 C-31.38196788 55.3238929 -37.67054812 50.62660604 -42.5 42.75 C-46.69556622 35.24459821 -47.06899986 27.42588095 -46 19 C-42.99077201 8.88118376 -36.56506519 2.56164172 -27.875 -3 C-19.04577057 -6.15624323 -7.82814251 -5.11911945 0 0 Z " fill="#D32617" transform="translate(621,251)"/>
<path d="M0 0 C46.328 0 46.328 0 54.62890625 7.46484375 C60.4073393 13.6198163 63.19120407 20.64560429 63.4375 29.0625 C63.04646623 38.32881539 60.61158854 44.29254086 54.18359375 51.05078125 C45.94969116 58.40090181 36.63548246 58.14598689 26.125 58.0625 C22.45375 58.041875 18.7825 58.02125 15 58 C15 69.22 15 80.44 15 92 C10.05 92 5.1 92 0 92 C0 61.64 0 31.28 0 0 Z " fill="#D22517" transform="translate(264,216)"/>
<path d="M0 0 C4.95 0 9.9 0 15 0 C15.33 12.87 15.66 25.74 16 39 C28.25586076 22.95452258 28.25586076 22.95452258 40.36816406 6.80078125 C42.15324833 4.40544429 43.88439409 2.11560591 46 0 C47.87939453 -0.22705078 47.87939453 -0.22705078 50.1328125 -0.1953125 C51.34130859 -0.18564453 51.34130859 -0.18564453 52.57421875 -0.17578125 C53.83685547 -0.15064453 53.83685547 -0.15064453 55.125 -0.125 C56.39923828 -0.11146484 56.39923828 -0.11146484 57.69921875 -0.09765625 C59.79959884 -0.07405647 61.89983444 -0.03818483 64 0 C61.24781044 5.0954453 58.18648601 9.48375125 54.5 13.9375 C50.00639234 19.45665471 45.63650819 25.04951559 41.375 30.75 C40.86646484 31.42925537 40.35792969 32.10851074 39.83398438 32.80834961 C35.71248184 37.50182763 35.71248184 37.50182763 34.25585938 42.98779297 C35.49125876 46.3283972 37.5372893 49.17653956 39.5 52.125 C39.96978271 52.84131592 40.43956543 53.55763184 40.92358398 54.2956543 C41.99339254 55.9260405 43.06575954 57.55474966 44.14013672 59.18212891 C47.40786708 64.13305354 50.66004155 69.09415758 53.91064453 74.05633545 C55.05019689 75.7937422 56.19287691 77.52906011 57.3359375 79.26416016 C58.04105469 80.33843262 58.74617188 81.41270508 59.47265625 82.51953125 C60.10437744 83.47964111 60.73609863 84.43975098 61.38696289 85.42895508 C62.73660752 87.58017463 63.92050542 89.70476395 65 92 C58.63905119 93.20905046 52.23758012 94.21928384 46 92 C40.66908945 87.5448819 37.67496428 80.89134511 34.51611328 74.82763672 C32.09329569 70.30894536 29.28591495 66.0504952 26.5 61.75 C25.54934984 60.24651658 24.6013091 58.74137912 23.65625 57.234375 C23.06553711 56.29416504 23.06553711 56.29416504 22.46289062 55.33496094 C20.30568966 51.89179171 18.15344839 48.44551743 16 45 C15.67 60.51 15.34 76.02 15 92 C10.05 92 5.1 92 0 92 C0 61.64 0 31.28 0 0 Z " fill="#CF2819" transform="translate(156,216)"/>
<path d="M0 0 C7.08575248 4.13222659 10.93275677 9.66952344 14.35546875 17.00390625 C15.04296875 20.19140625 15.04296875 20.19140625 15.04296875 31.19140625 C-0.46703125 31.19140625 -15.97703125 31.19140625 -31.95703125 31.19140625 C-28.68392652 40.12605767 -28.68392652 40.12605767 -21.58203125 45.50390625 C-15.11254771 47.1982948 -10.75347969 45.97816031 -4.95703125 43.19140625 C-3.96703125 42.86140625 -2.97703125 42.53140625 -1.95703125 42.19140625 C-1.29703125 40.87140625 -0.63703125 39.55140625 0.04296875 38.19140625 C4.00296875 39.84140625 7.96296875 41.49140625 12.04296875 43.19140625 C9.37808457 49.8536167 5.21302994 53.76956302 -0.98828125 57.37109375 C-8.98725168 60.60144719 -19.16766231 60.63642728 -27.375 58.16015625 C-35.4473355 54.47696134 -42.0308083 48.76097047 -45.95703125 40.69140625 C-48.46243776 32.48290335 -48.54140574 21.41380614 -44.89453125 13.56640625 C-35.53225054 -1.89713604 -16.5512609 -7.95680381 0 0 Z " fill="#D32517" transform="translate(698.95703125,249.80859375)"/>
<path d="M0 0 C7.17784278 3.77281654 10.48647115 8.55278173 14.296875 15.65625 C15.36328125 19.2421875 15.36328125 19.2421875 15.36328125 31.2421875 C-0.14671875 31.2421875 -15.65671875 31.2421875 -31.63671875 31.2421875 C-29.42524373 38.2996978 -29.42524373 38.2996978 -25.07421875 42.6796875 C-24.47480469 43.15277344 -23.87539063 43.62585938 -23.2578125 44.11328125 C-19.54629874 46.69792578 -16.02829454 46.68054806 -11.63671875 46.2421875 C-6.28810836 44.49005651 -2.74373765 41.94852163 1.36328125 38.2421875 C4.99328125 39.8921875 8.62328125 41.5421875 12.36328125 43.2421875 C9.70298264 49.89293402 5.51891161 53.90947306 -0.73828125 57.421875 C-9.23968505 60.76512369 -20.13550559 60.63442622 -28.609375 57.2890625 C-36.97559003 52.96893605 -42.55687497 47.00835884 -45.87109375 38.18359375 C-48.27458908 28.94975712 -47.45664393 19.50080557 -42.63671875 11.2421875 C-33.22094319 -3.39291769 -15.52030298 -6.66798202 0 0 Z " fill="#D12719" transform="translate(422.63671875,249.7578125)"/>
<path d="M0 0 C21.12 0 42.24 0 64 0 C64 5.28 64 10.56 64 16 C56.08 16 48.16 16 40 16 C40 41.08 40 66.16 40 92 C34.72 92 29.44 92 24 92 C24 66.92 24 41.84 24 16 C16.08 16 8.16 16 0 16 C0 10.72 0 5.44 0 0 Z " fill="#D42C1E" transform="translate(10,216)"/>
<path d="M0 0 C0.33 0.33 0.66 0.66 1 1 C2.50425144 1.09798873 4.01310971 1.12598615 5.52054924 1.12649983 C6.9981378 1.13063945 6.9981378 1.13063945 8.50557664 1.13486269 C9.6029589 1.13280737 10.70034117 1.13075205 11.83097744 1.12863445 C13.56914594 1.13126401 13.56914594 1.13126401 15.34242895 1.13394669 C18.58768434 1.13782387 21.83290392 1.13716496 25.07815957 1.13466892 C28.59782952 1.13304461 32.11749329 1.13716931 35.63716131 1.14057809 C41.81538337 1.14574774 47.99359759 1.1471466 54.17182159 1.14612198 C63.35882246 1.14460206 72.54581459 1.14874762 81.73281376 1.1539966 C99.09217083 1.16368721 116.45152495 1.16648148 133.81088441 1.16705366 C147.21187575 1.1675125 160.61286593 1.16956712 174.01385689 1.17275429 C177.86568961 1.17365178 181.71752234 1.17454159 185.56935507 1.17542917 C186.52682071 1.17565021 187.48428635 1.17587126 188.4707661 1.17609901 C215.41663956 1.18225654 242.36251261 1.18619923 269.3083868 1.18575573 C270.83347533 1.18573236 270.83347533 1.18573236 272.38937373 1.18570852 C277.54303978 1.18562541 282.69670584 1.18552637 287.85037189 1.18542381 C288.87398377 1.18540387 289.89759564 1.18538392 290.95222606 1.18536337 C293.02221992 1.18532294 295.09221378 1.18528114 297.16220765 1.18523798 C329.37922041 1.18462501 361.59622266 1.19213441 393.81323242 1.20581055 C429.97411813 1.22115439 466.13499693 1.2297778 502.2958861 1.22884732 C506.14803318 1.22877269 510.00018026 1.22872399 513.85232735 1.22869301 C514.80088723 1.22868135 515.74944711 1.2286697 516.72675124 1.22865769 C532.02484973 1.22862685 547.32293913 1.23502635 562.62103491 1.24362527 C577.98235646 1.25208145 593.34366464 1.25310774 608.70498722 1.24651595 C617.84278829 1.24280669 626.98054886 1.24469344 636.11834569 1.25445829 C642.21186483 1.26042239 648.30535438 1.25920299 654.39887212 1.25198779 C657.87757697 1.24807581 661.35620299 1.24741708 664.83490252 1.25544515 C668.57106981 1.26241316 672.30702194 1.2572849 676.04318142 1.24888897 C677.68574307 1.25634124 677.68574307 1.25634124 679.36148778 1.26394406 C680.84283162 1.25681784 680.84283162 1.25681784 682.3541016 1.24954766 C683.20958756 1.24963588 684.06507353 1.2497241 684.94648331 1.249815 C687.22416108 1.18686573 687.22416108 1.18686573 689 -1 C693.55555556 -0.44444444 693.55555556 -0.44444444 695 1 C695.125 3.5 695.125 3.5 695 6 C694 7 694 7 691.5 7.125 C689 7 689 7 688 6 C686.49106993 5.90236667 684.97756142 5.87477023 683.46547604 5.87465084 C682.47729393 5.87214732 681.48911183 5.8696438 680.47098482 5.86706442 C679.37010801 5.86940558 678.26923121 5.87174675 677.13499451 5.87415886 C675.97253916 5.87270542 674.81008382 5.87125198 673.61240256 5.86975449 C670.35684253 5.86671287 667.10131931 5.86820655 663.84576066 5.87153245 C660.31493695 5.87405331 656.78411799 5.87081556 653.25329494 5.86828911 C647.05551698 5.86466446 640.85774771 5.86479491 634.65996933 5.86733627 C625.44394484 5.87110506 616.22792775 5.86919218 607.01190332 5.86612797 C590.55600398 5.86085065 574.10010852 5.86132321 557.64420882 5.86420688 C543.24375232 5.8667181 528.84329725 5.86738116 514.44284058 5.86618423 C513.48924786 5.86610785 512.53565514 5.86603146 511.55316567 5.86595276 C507.68264847 5.86564145 503.81213128 5.86532305 499.94161409 5.864993 C463.60071265 5.86193099 427.25981369 5.86471224 390.91891263 5.8700899 C358.60121387 5.87483583 326.28351904 5.87441122 293.96582031 5.86962891 C257.69324336 5.86427935 221.4206686 5.8621481 185.14809132 5.86524117 C181.28444735 5.86556191 177.42080339 5.86587475 173.55715942 5.86618423 C172.60576582 5.86626331 171.65437221 5.86634239 170.67414849 5.86642386 C156.2794183 5.86756344 141.88468969 5.86622716 127.48995972 5.86370468 C111.1296954 5.86085214 94.76943557 5.86154585 78.40917182 5.86698543 C69.24228887 5.86993239 60.07541564 5.87009808 50.90853293 5.86633925 C44.7969046 5.86410866 38.68528412 5.86547089 32.57365697 5.86984402 C29.08380597 5.87223881 25.59397438 5.87300329 22.10412395 5.86943804 C18.35773195 5.86643775 14.61139454 5.86947468 10.86500549 5.87415886 C9.76412869 5.87181769 8.66325189 5.86947653 7.52901518 5.86706442 C6.54083308 5.86956793 5.55265098 5.87207145 4.53452396 5.87465084 C3.67638633 5.8747186 2.81824869 5.87478635 1.93410689 5.87485617 C-0.00679709 5.78680566 -0.00679709 5.78680566 -1 7 C-3.5 7.125 -3.5 7.125 -6 7 C-7 6 -7 6 -7.0625 2.9375 C-7.041875 1.968125 -7.02125 0.99875 -7 0 C-4.31633121 -1.3418344 -2.84719317 -0.73004953 0 0 Z " fill="#AE372C" transform="translate(18,175)"/>
<path d="M0 0 C20.46 0 40.92 0 62 0 C62 4.95 62 9.9 62 15 C54.41 15 46.82 15 39 15 C39 40.41 39 65.82 39 92 C34.05 92 29.1 92 24 92 C23.67 66.92 23.34 41.84 23 16 C11.615 15.505 11.615 15.505 0 15 C0 10.05 0 5.1 0 0 Z " fill="#D12516" transform="translate(82,216)"/>
<path d="M0 0 C3.5873184 1.97668565 4.63857394 3.26809859 7.25 6.75 C4.61 9.39 1.97 12.03 -0.75 14.75 C-5.75 12.75 -5.75 12.75 -7.5625 11.625 C-10.99783054 10.25086779 -14.06698414 10.56886807 -17.75 10.75 C-18.99660324 11.80054601 -18.99660324 11.80054601 -19.125 14.125 C-19.00125 14.99125 -18.8775 15.8575 -18.75 16.75 C-15.50874101 19.10114052 -12.09053353 20.41849265 -8.33056641 21.74121094 C-0.34901539 24.58308154 5.31360781 27.87721561 9.25 35.75 C10.02715334 42.34470124 9.75378699 47.6093627 5.8203125 53.09375 C3.2639785 55.78998288 0.60522632 57.16734608 -2.75 58.75 C-3.74 59.245 -3.74 59.245 -4.75 59.75 C-15.07990984 60.55882963 -24.70235475 60.53805588 -33.75 54.75 C-34.74 53.43 -35.73 52.11 -36.75 50.75 C-34.11 47.45 -31.47 44.15 -28.75 40.75 C-25.8203125 42.3125 -22.890625 43.875 -19.9609375 45.4375 C-16.56762286 46.82454832 -14.37457935 47.12069562 -10.75 46.75 C-8.40738392 45.37073227 -8.40738392 45.37073227 -6.75 43.75 C-6.82377513 41.31634106 -6.82377513 41.31634106 -7.75 38.75 C-10.15504032 37.22131743 -10.15504032 37.22131743 -13.1875 36.25 C-14.80978516 35.63125 -14.80978516 35.63125 -16.46484375 35 C-17.54894531 34.5875 -18.63304687 34.175 -19.75 33.75 C-26.40305066 30.86129415 -31.37893579 28.49212842 -34.75 21.75 C-34.89851844 19.81640414 -34.97130833 17.87657903 -35 15.9375 C-35.02578125 14.89980469 -35.0515625 13.86210937 -35.078125 12.79296875 C-34.54606385 7.85873501 -32.43739088 5.39256104 -28.875 2.0625 C-20.62968443 -4.03903352 -9.22061584 -4.41340228 0 0 Z " fill="#D22617" transform="translate(481.75,249.25)"/>
<path d="M0 0 C5.28 0 10.56 0 16 0 C16 7.26 16 14.52 16 22 C19.63 22 23.26 22 27 22 C27 25.96 27 29.92 27 34 C21.555 34.495 21.555 34.495 16 35 C15.67 50.51 15.34 66.02 15 82 C10.05 82 5.1 82 0 82 C0 66.16 0 50.32 0 34 C-3.96 34 -7.92 34 -12 34 C-12 30.04 -12 26.08 -12 22 C-8.04 22 -4.08 22 0 22 C0 14.74 0 7.48 0 0 Z " fill="#D52314" transform="translate(509,226)"/>
<path d="M0 0 C0 4.95 0 9.9 0 15 C-1.52625 15.020625 -3.0525 15.04125 -4.625 15.0625 C-8.80411823 15.45966443 -10.80804673 16.17606283 -13.5625 19.375 C-17.03590845 23.99965147 -17.19130103 28.33418445 -17.31640625 33.94921875 C-17.33718735 34.72183548 -17.35796844 35.49445221 -17.37937927 36.29048157 C-17.44471038 38.7560648 -17.50368315 41.22175361 -17.5625 43.6875 C-17.60570087 45.36003691 -17.64931566 47.03256319 -17.69335938 48.70507812 C-17.80115324 52.80327882 -17.90034835 56.90156084 -18 61 C-23.28 61 -28.56 61 -34 61 C-34 41.2 -34 21.4 -34 1 C-28.72 1 -23.44 1 -18 1 C-17.67 2.98 -17.34 4.96 -17 7 C-16.51789063 6.57847656 -16.03578125 6.15695313 -15.5390625 5.72265625 C-14.90742188 5.17480469 -14.27578125 4.62695312 -13.625 4.0625 C-12.68527344 3.24458984 -12.68527344 3.24458984 -11.7265625 2.41015625 C-7.92478099 -0.69491869 -4.75578891 -0.07670627 0 0 Z " fill="#D32A1B" transform="translate(370,247)"/>
<path d="M0 0 C4.29 0 8.58 0 13 0 C13.33 13.86 13.66 27.72 14 42 C13.34 42 12.68 42 12 42 C12.16265854 42.56732849 12.32531708 43.13465698 12.49290466 43.71917725 C13.01348924 46.06067217 13.12040915 48.09761658 13.11352539 50.49316406 C13.11344986 51.37377502 13.11337433 52.25438599 13.11329651 53.16168213 C13.10813522 54.10348328 13.10297394 55.04528442 13.09765625 56.015625 C13.0962413 56.98659119 13.09482635 57.95755737 13.09336853 58.95794678 C13.08777663 62.05532935 13.07522559 65.15263932 13.0625 68.25 C13.05748395 70.35156146 13.05292123 72.45312404 13.04882812 74.5546875 C13.03780985 79.70315292 13.02055074 84.85156416 13 90 C8.71 90 4.42 90 0 90 C0 60.3 0 30.6 0 0 Z " fill="#D52313" transform="translate(157,217)"/>
<path d="M0 0 C4.89186906 2.35534436 7.81078942 5.7173458 11 10 C12.56503759 14.69511278 12.82487686 18.74361039 11.12890625 23.3828125 C8.96276367 27.68668924 6.66748397 31.26336289 2.15625 33.41015625 C-3.86660279 35.057712 -9.83996051 35.00287548 -15.5 32.375 C-20.21703812 27.89381379 -22.82186973 23.71648664 -23.25 17.1875 C-23.15974866 11.71225223 -21.1723118 8.32260818 -17.5625 4.25 C-12.10585887 -0.54119709 -7.08665336 -0.82402946 0 0 Z " fill="#FDF8F7" transform="translate(613,261)"/>
<path d="M0 0 C4.95 0 9.9 0 15 0 C15 19.8 15 39.6 15 60 C10.05 60 5.1 60 0 60 C0 40.2 0 20.4 0 0 Z " fill="#D02517" transform="translate(547,248)"/>
<path d="M0 0 C3.135 -0.061875 6.27 -0.12375 9.5 -0.1875 C10.95696289 -0.22846802 10.95696289 -0.22846802 12.44335938 -0.27026367 C19.32791919 -0.3353841 24.96158009 0.56926407 30.5 5 C32.81011556 9.62023112 32.72836864 13.9385812 32 19 C29.64310937 24.07637982 27.16949596 26.03309748 22 28 C18.19746928 28.35482515 14.43962717 28.28273926 10.625 28.1875 C5.365625 28.0946875 5.365625 28.0946875 0 28 C0 18.76 0 9.52 0 0 Z " fill="#FDF4F2" transform="translate(279,231)"/>
<path d="M0 0 C4.70588235 0.70588235 4.70588235 0.70588235 6 2 C6.125 4.5 6.125 4.5 6 7 C5 8 5 8 2.5 8.125 C0 8 0 8 -1 7 C-2.5071135 6.90069182 -4.01888202 6.87131353 -5.5292626 6.86938947 C-7.00976997 6.86386841 -7.00976997 6.86386841 -8.52018657 6.85823581 C-9.61974488 6.85925847 -10.71930318 6.86028114 -11.85218143 6.8613348 C-13.59378128 6.85707147 -13.59378128 6.85707147 -15.37056497 6.85272202 C-18.62221882 6.84578606 -21.87384139 6.84337802 -25.1255015 6.8427946 C-28.65208514 6.84107375 -32.17865709 6.83359307 -35.70523399 6.82681805 C-41.89552593 6.8157308 -48.08581375 6.80837752 -54.27611351 6.80341911 C-63.48096396 6.79602939 -72.68580005 6.7829501 -81.89064208 6.76867336 C-97.37220043 6.74482413 -112.85376133 6.72563628 -128.33532906 6.70907402 C-143.67152823 6.69265216 -159.00772265 6.67417751 -174.34391594 6.65294075 C-175.77244319 6.65096434 -175.77244319 6.65096434 -177.22982957 6.648948 C-182.06603151 6.64224623 -186.90223339 6.63550759 -191.73843526 6.62875474 C-226.02345419 6.58094857 -260.30847755 6.53777597 -294.59350586 6.49731445 C-327.90796227 6.45798779 -361.222415 6.41657092 -394.53686523 6.37231445 C-395.56315012 6.37095192 -396.589435 6.36958939 -397.64681943 6.36818558 C-407.95287561 6.3545006 -418.25893173 6.34077303 -428.56498782 6.32701423 C-449.5609793 6.29898514 -470.55697116 6.27124043 -491.55296326 6.2436676 C-492.51839686 6.2423994 -493.48383046 6.2411312 -494.47851962 6.23982458 C-558.98567378 6.15512023 -623.4928363 6.07704608 -688 6 C-688 5.67 -688 5.34 -688 5 C-461.62 5 -235.24 5 -2 5 C-1.67 3.68 -1.34 2.36 -1 1 C-0.67 0.67 -0.34 0.34 0 0 Z " fill="#DA695D" transform="translate(707,174)"/>
<path d="M0 0 C0.66 0 1.32 0 2 0 C2 0.99 2 1.98 2 3 C2.5775 3.0825 3.155 3.165 3.75 3.25 C6.62131472 4.20710491 7.8743794 5.8743794 10 8 C14.03717862 10.18225871 17.45359131 10.39193178 22 10 C24.45484531 9.17161598 26.65390498 8.1279303 29 7 C29.99 6.67 30.98 6.34 32 6 C32.66 4.68 33.32 3.36 34 2 C37.96 3.65 41.92 5.3 46 7 C43.33511582 13.66221045 39.17006119 17.57815677 32.96875 21.1796875 C24.96977957 24.41004094 14.78936894 24.44502103 6.58203125 21.96875 C-0.41496698 18.77620328 -5.6083089 14.31681596 -10 8 C-10.33 7.01 -10.66 6.02 -11 5 C-10.01 5 -9.02 5 -8 5 C-7.67 5.66 -7.34 6.32 -7 7 C-6.01 7.33 -5.02 7.66 -4 8 C-4.33 6.68 -4.66 5.36 -5 4 C-4.01 3.67 -3.02 3.34 -2 3 C-1.34 2.01 -0.68 1.02 0 0 Z " fill="#D42415" transform="translate(665,286)"/>
<path d="M0 0 C2.5 0.125 2.5 0.125 3.5 1.125 C3.6875 3.5625 3.6875 3.5625 3.5 6.125 C2.84 6.785 2.18 7.445 1.5 8.125 C-3.05555556 7.56944444 -3.05555556 7.56944444 -4.5 6.125 C-6.94069959 6.01492855 -9.35371486 5.97004214 -11.79542542 5.96678162 C-12.56807124 5.96184364 -13.34071706 5.95690566 -14.13677639 5.95181805 C-16.74556023 5.9363666 -19.35431932 5.92806187 -21.96313477 5.91967773 C-23.8253298 5.91010521 -25.68752263 5.90009551 -27.54971313 5.88967896 C-32.62179218 5.86255601 -37.6938806 5.84158659 -42.7659924 5.82167697 C-48.06047874 5.79986283 -53.35493594 5.77245185 -58.6493988 5.74562073 C-68.68269312 5.69563181 -78.71600356 5.65071606 -88.74932951 5.60759836 C-100.16874353 5.55827884 -111.58812833 5.50334118 -123.00751412 5.44791877 C-146.50498216 5.33400361 -170.00247823 5.22718544 -193.5 5.125 C-193.5 4.135 -193.5 3.145 -193.5 2.125 C-192.52171266 2.12076806 -191.54342531 2.11653612 -190.5354929 2.11217594 C-166.76798061 2.00913402 -143.00049956 1.90040543 -119.23304081 1.78566074 C-107.7394368 1.73030449 -96.2458297 1.67681861 -84.75219727 1.62768555 C-74.73822861 1.58487307 -64.72428303 1.53860261 -54.71034998 1.48812145 C-49.40455911 1.46149678 -44.09877289 1.43664321 -38.7929554 1.41592598 C-33.80506984 1.39639564 -28.81722832 1.37226289 -23.82938194 1.34450912 C-21.99310731 1.33511953 -20.156823 1.32745117 -18.32053375 1.32158089 C-15.82477011 1.31335198 -13.32911427 1.2990847 -10.83338928 1.28321838 C-10.09702195 1.28224028 -9.36065461 1.28126217 -8.60197312 1.28025442 C-5.26392434 1.25272661 -3.04834806 0.1524174 0 0 Z " fill="#EFA8A2" transform="translate(709.5,363.875)"/>
<path d="M0 0 C2.5625 0.1875 2.5625 0.1875 4.5625 2.1875 C7.03271199 2.39267351 9.39220613 2.47263523 11.86428833 2.4659729 C12.62553792 2.4717653 13.38678751 2.4775577 14.17110527 2.48352563 C16.73536894 2.50060228 19.29945348 2.50340867 21.86376953 2.50634766 C23.69655808 2.51564056 25.52934237 2.52580826 27.36212158 2.53678894 C32.34943834 2.56417499 37.33672673 2.57926375 42.32409906 2.59221697 C47.53184434 2.60780999 52.73953133 2.63461232 57.94723511 2.6602478 C67.81403514 2.7071036 77.68084606 2.74381472 87.54770076 2.77692068 C98.77852467 2.81509411 110.00929014 2.86451672 121.24006486 2.91490483 C144.34749997 3.0183258 167.4549726 3.10755305 190.5625 3.1875 C190.5625 3.8475 190.5625 4.5075 190.5625 5.1875 C128.8525 5.1875 67.1425 5.1875 3.5625 5.1875 C3.2325 6.1775 2.9025 7.1675 2.5625 8.1875 C-2.3125 7.3125 -2.3125 7.3125 -3.4375 6.1875 C-3.5625 3.6875 -3.5625 3.6875 -3.4375 1.1875 C-2.4375 0.1875 -2.4375 0.1875 0 0 Z " fill="#B0554C" transform="translate(14.4375,363.8125)"/>
<path d="M0 0 C5.28 0 10.56 0 16 0 C16 7.26 16 14.52 16 22 C19.63 22 23.26 22 27 22 C27 25.96 27 29.92 27 34 C21.555 34.495 21.555 34.495 16 35 C15.67 50.51 15.34 66.02 15 82 C10.05 82 5.1 82 0 82 C0 66.16 0 50.32 0 34 C0.33 34 0.66 34 1 34 C1 49.51 1 65.02 1 81 C5.29 81 9.58 81 14 81 C13.99476318 79.58146729 13.98952637 78.16293457 13.98413086 76.70141602 C13.96608691 71.45907213 13.95457022 66.216731 13.94506836 60.97436523 C13.94002675 58.70157409 13.93319363 56.4287862 13.92456055 54.15600586 C13.91248739 50.89696449 13.90677013 47.63796583 13.90234375 44.37890625 C13.89718246 43.35599991 13.89202118 42.33309357 13.88670349 41.27919006 C13.88659019 39.86784035 13.88659019 39.86784035 13.88647461 38.42797852 C13.884254 37.59524918 13.88203339 36.76251984 13.87974548 35.90455627 C14 34 14 34 15 33 C16.85287502 32.92773498 18.70833878 32.9161878 20.5625 32.9375 C21.57441406 32.94652344 22.58632813 32.95554687 23.62890625 32.96484375 C24.80259766 32.98224609 24.80259766 32.98224609 26 33 C26 29.7 26 26.4 26 23 C22.37 23 18.74 23 15 23 C15 15.74 15 8.48 15 1 C8.565 1.495 8.565 1.495 2 2 C2.01160156 3.43214844 2.02320313 4.86429688 2.03515625 6.33984375 C2.04453255 8.20572787 2.05363292 10.07161339 2.0625 11.9375 C2.07087891 12.88302734 2.07925781 13.82855469 2.08789062 14.80273438 C2.09111328 15.70185547 2.09433594 16.60097656 2.09765625 17.52734375 C2.10289307 18.35999756 2.10812988 19.19265137 2.11352539 20.05053711 C2 22 2 22 1 23 C-2.6691577 23.14310287 -6.32715441 23.04221662 -10 23 C-10 26.63 -10 30.26 -10 34 C-10.66 34 -11.32 34 -12 34 C-12 30.04 -12 26.08 -12 22 C-8.04 22 -4.08 22 0 22 C0 14.74 0 7.48 0 0 Z " fill="#BB3B31" transform="translate(509,226)"/>
<path d="M0 0 C2.4375 1.5625 2.4375 1.5625 4 4 C4.7099846 8.9698922 4.79117716 10.84919686 1.9375 15 C-1.77807226 17.52975133 -3.5882483 17.7878128 -8 17 C-11.24197817 14.60375526 -12.68542977 12.82137783 -14.125 9.0625 C-13.94168727 4.57133809 -12.14657192 3.14657192 -9 0 C-5.81452856 -1.59273572 -3.39809153 -0.76164121 0 0 Z " fill="#D02B1C" transform="translate(559,220)"/>
<path d="M0 0 C2.4375 0.1875 2.4375 0.1875 3.4375 1.1875 C3.625 3.625 3.625 3.625 3.4375 6.1875 C2.7775 6.8475 2.1175 7.5075 1.4375 8.1875 C-1.1875 7.8125 -1.1875 7.8125 -3.5625 7.1875 C-3.8925 6.1975 -4.2225 5.2075 -4.5625 4.1875 C-66.6025 4.1875 -128.6425 4.1875 -192.5625 4.1875 C-192.5625 3.8575 -192.5625 3.5275 -192.5625 3.1875 C-191.59544191 3.18418985 -190.62838383 3.18087971 -189.63202095 3.17746925 C-166.13117995 3.0965739 -142.63040488 3.00428895 -119.12965584 2.89997292 C-107.76499918 2.84979236 -96.40034993 2.80335017 -85.03564453 2.765625 C-75.13334754 2.7327449 -65.23110716 2.69293596 -55.32887256 2.64470994 C-50.0828486 2.61940522 -44.83686239 2.59763579 -39.59079361 2.58415604 C-34.65785794 2.57137159 -29.72505148 2.54935672 -24.79218674 2.52011681 C-22.97730146 2.5110126 -21.16239535 2.50534422 -19.3474884 2.50328636 C-16.87824905 2.49998378 -14.40938054 2.48456152 -11.94021606 2.4659729 C-11.21454347 2.46790763 -10.48887087 2.46984237 -9.7412082 2.47183573 C-5.50265189 2.42380901 -3.75887738 0.27503981 0 0 Z " fill="#9D3A30" transform="translate(709.5625,363.8125)"/>
<path d="M0 0 C7.96153846 0 7.96153846 0 12 3 C14.39286884 5.39286884 14.32050616 6.09447094 14.375 9.375 C14.27805322 12.39004473 14.10045165 13.81736064 12.625 16.5 C8.53640165 18.83634191 4.67874732 18.75375014 0 19 C0 12.73 0 6.46 0 0 Z " fill="#C03226" transform="translate(466,357)"/>
<path d="M0 0 C3 1 3 1 5 4 C4.67 4.99 4.34 5.98 4 7 C3.34 7 2.68 7 2 7 C1.67 8.98 1.34 10.96 1 13 C0.34 13 -0.32 13 -1 13 C-1.33 13.66 -1.66 14.32 -2 15 C-4.5625 15.625 -4.5625 15.625 -7 16 C-7 16.33 -7 16.66 -7 17 C-10.96 17.33 -14.92 17.66 -19 18 C-19.99 16.02 -20.98 14.04 -22 12 C-21.34 12 -20.68 12 -20 12 C-20 11.01 -20 10.02 -20 9 C-19.16855469 8.81824219 -18.33710937 8.63648438 -17.48046875 8.44921875 C-16.39378906 8.19785156 -15.30710937 7.94648438 -14.1875 7.6875 C-12.56908203 7.32205078 -12.56908203 7.32205078 -10.91796875 6.94921875 C-7.98013655 5.9935384 -6.9930181 5.23606909 -5 3 C-2.3125 2.3125 -2.3125 2.3125 0 2 C0 1.34 0 0.68 0 0 Z " fill="#D52314" transform="translate(701,290)"/>
<path d="M0 0 C4.76781352 2.45522021 5.33811553 4.2113873 7.890625 9.31640625 C-2.009375 9.31640625 -11.909375 9.31640625 -22.109375 9.31640625 C-16.88449111 0.60826643 -10.08059039 -3.266858 0 0 Z " fill="#FDF5F3" transform="translate(414.109375,259.68359375)"/>
<path d="M0 0 C4.42848151 2.21424076 7.16464364 4.9650698 10 9 C10 9.33 10 9.66 10 10 C0.1 10 -9.8 10 -20 10 C-14.78988548 1.3164758 -9.82563606 -1.08837815 0 0 Z " fill="#FEF6F5" transform="translate(688,259)"/>
<path d="M0 0 C4 4 4 4 6.125 7.25 C6.74375 8.1575 7.3625 9.065 8 10 C8.66 10 9.32 10 10 10 C11.25178683 8.38106091 12.42897581 6.70383595 13.5625 5 C14.68602592 3.31821484 15.82636475 1.64720737 17 0 C17.33 0 17.66 0 18 0 C18 6.27 18 12.54 18 19 C17.01 19 16.02 19 15 19 C14.67 16.03 14.34 13.06 14 10 C12.02 12.97 12.02 12.97 10 16 C6.83884224 14.63016497 6.0072908 14.0109362 4 11 C3.67 13.64 3.34 16.28 3 19 C2.01 19 1.02 19 0 19 C0 12.73 0 6.46 0 0 Z " fill="#C24A40" transform="translate(309,357)"/>
<path d="M0 0 C3.96 0 7.92 0 12 0 C12 0.99 12 1.98 12 3 C9.03 3 6.06 3 3 3 C3 4.65 3 6.3 3 8 C5.64 8 8.28 8 11 8 C11 8.99 11 9.98 11 11 C8.69 11 6.38 11 4 11 C4 12.32 4 13.64 4 15 C6.64 15 9.28 15 12 15 C12 16.32 12 17.64 12 19 C8.04 19 4.08 19 0 19 C0 12.73 0 6.46 0 0 Z " fill="#C94D43" transform="translate(426,357)"/>
<path d="M0 0 C3.34373475 0.55728913 6.03312999 1.35173889 9 3 C6.79950164 9.613016 1.91070564 13.72878249 -4.03125 17.1796875 C-12.09455801 20.43602343 -22.55971642 20.61763235 -30.69921875 17.65234375 C-33.56316433 16.21867632 -36.29905893 14.71878068 -39 13 C-39 12.01 -39 11.02 -39 10 C-38.01 10 -37.02 10 -36 10 C-36 10.99 -36 11.98 -36 13 C-35.34 13 -34.68 13 -34 13 C-33.67 12.01 -33.34 11.02 -33 10 C-33 11.65 -33 13.3 -33 15 C-31.35 15 -29.7 15 -28 15 C-28 15.66 -28 16.32 -28 17 C-21.56688704 17.09507063 -15.34241995 17.15316726 -9 16 C-9 15.67 -9 15.34 -9 15 C-7.02 15 -5.04 15 -3 15 C-2.67 14.01 -2.34 13.02 -2 12 C-1.34 12.33 -0.68 12.66 0 13 C0 11.02 0 9.04 0 7 C0.99 6.67 1.98 6.34 3 6 C2.65555119 3.52733235 2.65555119 3.52733235 2 1 C1.34 0.67 0.68 0.34 0 0 Z " fill="#C03A30" transform="translate(702,290)"/>
<path d="M0 0 C3.16242675 2.58744007 4.08288297 5.04934204 5 9 C5 12.63 5 16.26 5 20 C-10.51 20 -26.02 20 -42 20 C-42.33 21.32 -42.66 22.64 -43 24 C-43 22.02 -43 20.04 -43 18 C-27.49 18 -11.98 18 4 18 C2.61394061 8.78935222 2.61394061 8.78935222 0 4 C0 2.68 0 1.36 0 0 Z " fill="#C2453A" transform="translate(709,261)"/>
<path d="M0 0 C3.81248426 -0.02887236 7.6249407 -0.04675492 11.4375 -0.0625 C12.52611328 -0.07087891 13.61472656 -0.07925781 14.73632812 -0.08789062 C15.77080078 -0.09111328 16.80527344 -0.09433594 17.87109375 -0.09765625 C18.82943115 -0.10289307 19.78776855 -0.10812988 20.77514648 -0.11352539 C23 0 23 0 24 1 C24.09494733 3.37300869 24.12559319 5.71678703 24.11352539 8.09008789 C24.11367142 8.83150528 24.11381744 9.57292267 24.1139679 10.33680725 C24.11326865 12.79878621 24.10547574 15.26069043 24.09765625 17.72265625 C24.09579211 19.42516539 24.09436819 21.12767507 24.09336853 22.83018494 C24.08954302 27.31993073 24.07971247 31.80964438 24.06866455 36.29937744 C24.05845113 40.87731491 24.05387106 45.45525756 24.04882812 50.03320312 C24.03809022 59.02214957 24.02101341 68.01107212 24 77 C23.67 77 23.34 77 23 77 C22.67 52.25 22.34 27.5 22 2 C14.74 2 7.48 2 0 2 C0 1.34 0 0.68 0 0 Z " fill="#EFAFA7" transform="translate(82,231)"/>
<path d="M0 0 C5.28 0 10.56 0 16 0 C16 20.46 16 40.92 16 62 C15.67 62 15.34 62 15 62 C15 41.87 15 21.74 15 1 C10.38 1 5.76 1 1 1 C1 2.98 1 4.96 1 7 C-2 7 -5 7 -8 7 C-8.33 5.02 -8.66 3.04 -9 1 C-5.64404172 1.59927826 -3.62198774 2.84622436 -1 5 C-0.67 3.35 -0.34 1.7 0 0 Z " fill="#B73025" transform="translate(624,248)"/>
<path d="M0 0 C1.98 0.66 3.96 1.32 6 2 C3.80175229 8.60625229 -1.10536889 12.81379443 -7.1015625 16.1796875 C-15.74177719 19.57752474 -26.49609827 19.29077657 -35.08984375 15.93359375 C-37.95114793 14.53512402 -40.44449004 12.90025099 -43 11 C-42.34 10.67 -41.68 10.34 -41 10 C-38.375 10.9375 -38.375 10.9375 -36 12 C-36 12.66 -36 13.32 -36 14 C-34.68 14 -33.36 14 -32 14 C-32 14.66 -32 15.32 -32 16 C-28.41637224 15.86089513 -24.83318502 15.71254587 -21.25 15.5625 C-20.23421875 15.52318359 -19.2184375 15.48386719 -18.171875 15.44335938 C-17.1921875 15.40146484 -16.2125 15.35957031 -15.203125 15.31640625 C-14.30239258 15.27974854 -13.40166016 15.24309082 -12.47363281 15.20532227 C-10.20403661 15.01693593 -8.18437113 14.62633499 -6 14 C-6 13.34 -6 12.68 -6 12 C-5.01 12 -4.02 12 -3 12 C-2.9175 11.443125 -2.835 10.88625 -2.75 10.3125 C-1.77389987 7.30285794 -0.04811186 5.37845248 2 3 C1.34 2.67 0.68 2.34 0 2 C0 1.34 0 0.68 0 0 Z " fill="#C23428" transform="translate(429,291)"/>
<path d="M0 0 C1.51400391 0.01740234 1.51400391 0.01740234 3.05859375 0.03515625 C4.07050781 0.04417969 5.08242188 0.05320312 6.125 0.0625 C7.29869141 0.07990234 7.29869141 0.07990234 8.49609375 0.09765625 C8.49609375 0.42765625 8.49609375 0.75765625 8.49609375 1.09765625 C5.19609375 1.42765625 1.89609375 1.75765625 -1.50390625 2.09765625 C-1.46837646 3.42007324 -1.43284668 4.74249023 -1.39624023 6.10498047 C-1.2661343 10.99873345 -1.14288173 15.89263896 -1.02172852 20.78662109 C-0.9682694 22.90711202 -0.91293708 25.02755656 -0.85571289 27.14794922 C-0.77391102 30.19097897 -0.69878727 33.23411045 -0.625 36.27734375 C-0.59796494 37.22946747 -0.57092987 38.18159119 -0.54307556 39.16256714 C-0.52297928 40.04332916 -0.502883 40.92409119 -0.48217773 41.83154297 C-0.46219223 42.60875702 -0.44220673 43.38597107 -0.4216156 44.18673706 C-0.50390625 46.09765625 -0.50390625 46.09765625 -1.50390625 48.09765625 C-2.16390625 48.09765625 -2.82390625 48.09765625 -3.50390625 48.09765625 C-3.5291757 41.42245285 -3.54673893 34.74726168 -3.55883789 28.07202148 C-3.5638795 25.79923034 -3.57071262 23.52644245 -3.5793457 21.25366211 C-3.59141886 17.99462074 -3.59713612 14.73562208 -3.6015625 11.4765625 C-3.60672379 10.45365616 -3.61188507 9.43074982 -3.61720276 8.37684631 C-3.61727829 7.4359465 -3.61735382 6.49504669 -3.61743164 5.52563477 C-3.61965225 4.69290543 -3.62187286 3.86017609 -3.62416077 3.00221252 C-3.43780317 0.05073478 -2.96688338 0.11571308 0 0 Z " fill="#F0C2BD" transform="translate(527.50390625,259.90234375)"/>
<path d="M0 0 C3.48048937 3.48048937 5.03043666 5.66696066 7 10 C6.34 10 5.68 10 5 10 C4.01 9.01 3.02 8.02 2 7 C2 20.53 2 34.06 2 48 C1.34 48 0.68 48 0 48 C0 32.16 0 16.32 0 0 Z " fill="#FECDC6" transform="translate(171,260)"/>
<path d="M0 0 C1.65 0.99 3.3 1.98 5 3 C4.4238322 6.88913264 2.43876197 9.01054984 0 12 C0 12.66 0 13.32 0 14 C1.9600281 15.63676257 1.9600281 15.63676257 4 17 C-0.51707932 16.4685789 -3.38687577 14.70984317 -7 12 C-7.33 11.34 -7.66 10.68 -8 10 C-5.36 6.7 -2.72 3.4 0 0 Z " fill="#CC3123" transform="translate(453,290)"/>
<path d="M0 0 C6 1 6 1 8 3 C8.375 6.4375 8.375 6.4375 8 10 C6.25 11.9375 6.25 11.9375 4 13 C2.68 13 1.36 13 0 13 C0 8.71 0 4.42 0 0 Z " fill="#FDD4CE" transform="translate(469,360)"/>
<path d="M0 0 C4.29 0 8.58 0 13 0 C13 0.99 13 1.98 13 3 C11.35 3 9.7 3 8 3 C8 8.28 8 13.56 8 19 C7.01 19 6.02 19 5 19 C5 13.72 5 8.44 5 3 C3.35 3 1.7 3 0 3 C0 2.01 0 1.02 0 0 Z " fill="#BB3C33" transform="translate(386,357)"/>
<path d="M0 0 C0.66 0 1.32 0 2 0 C2 11.22 2 22.44 2 34 C2.99 34.33 3.98 34.66 5 35 C2.525 37.475 2.525 37.475 0 40 C0 26.8 0 13.6 0 0 Z " fill="#FED2CD" transform="translate(171,216)"/>
<path d="M0 0 C0.99 0 1.98 0 3 0 C3 5.28 3 10.56 3 16 C5.31 16 7.62 16 10 16 C10 16.99 10 17.98 10 19 C6.7 19 3.4 19 0 19 C0 12.73 0 6.46 0 0 Z " fill="#BB372C" transform="translate(240,357)"/>
<path d="M0 0 C1.32 0 2.64 0 4 0 C4 6.27 4 12.54 4 19 C2.68 19 1.36 19 0 19 C0 12.73 0 6.46 0 0 Z " fill="#CC5D56" transform="translate(355,357)"/>
<path d="M0 0 C1.32 0 2.64 0 4 0 C4 6.27 4 12.54 4 19 C2.68 19 1.36 19 0 19 C0 12.73 0 6.46 0 0 Z " fill="#CC6057" transform="translate(277,357)"/>
<path d="M0 0 C-0.33 0.66 -0.66 1.32 -1 2 C-1.99 1.67 -2.98 1.34 -4 1 C-7.12063575 0.74925498 -10.24531766 0.76879689 -13.375 0.75 C-14.22578125 0.729375 -15.0765625 0.70875 -15.953125 0.6875 C-20.8781768 0.65681432 -23.92808948 0.94606711 -28 4 C-28.86625 4.33 -29.7325 4.66 -30.625 5 C-33.04230145 6.01781114 -34.30262899 7.03462304 -36 9 C-36.66 8.67 -37.32 8.34 -38 8 C-27.39157775 -2.29806947 -14.22717798 -5.56233905 0 0 Z " fill="#C1382E" transform="translate(697,249)"/>
<path d="M0 0 C5.02475668 -0.29557392 7.92352591 -0.0282379 12 3 C14 5 14 5 14.1953125 7.1640625 C14.17210937 7.97617187 14.14890625 8.78828125 14.125 9.625 C14.10695313 10.44226563 14.08890625 11.25953125 14.0703125 12.1015625 C14.03550781 13.04128906 14.03550781 13.04128906 14 14 C12.35 14.33 10.7 14.66 9 15 C9.33 14.34 9.66 13.68 10 13 C10.04022391 10.6670134 10.04320247 8.33293334 10 6 C6.7 4.35 3.4 2.7 0 1 C0 0.67 0 0.34 0 0 Z " fill="#C03E31" transform="translate(466,357)"/>
<path d="M0 0 C1.3125 2.0625 1.3125 2.0625 2 4 C0.8125 5.5 0.8125 5.5 -1 7 C-3.625 7.25 -3.625 7.25 -6 7 C-7 6 -7 6 -7.0625 2.9375 C-7.041875 1.968125 -7.02125 0.99875 -7 0 C-4.25509788 -1.37245106 -2.87939419 -0.93580311 0 0 Z " fill="#C13C33" transform="translate(18,175)"/>
<path d="M0 0 C3.34373475 0.55728913 6.03312999 1.35173889 9 3 C7.83620352 6.31234384 6.88761214 8.8898219 4 11 C2.68 11 1.36 11 0 11 C0.33 9.35 0.66 7.7 1 6 C1.66 6 2.32 6 3 6 C2.65555119 3.52733235 2.65555119 3.52733235 2 1 C1.34 0.67 0.68 0.34 0 0 Z " fill="#D22518" transform="translate(702,290)"/>
<path d="M0 0 C2.4375 0.1875 2.4375 0.1875 3.4375 1.1875 C3.625 3.625 3.625 3.625 3.4375 6.1875 C2.7775 6.8475 2.1175 7.5075 1.4375 8.1875 C-1.1875 7.8125 -1.1875 7.8125 -3.5625 7.1875 C-4.1875 4.8125 -4.1875 4.8125 -4.5625 2.1875 C-2.5625 0.1875 -2.5625 0.1875 0 0 Z " fill="#C23C34" transform="translate(709.5625,363.8125)"/>
<path d="M0 0 C0.33 0 0.66 0 1 0 C1 1.98 1 3.96 1 6 C0.34 6 -0.32 6 -1 6 C-1 12.27 -1 18.54 -1 25 C-0.34 25 0.32 25 1 25 C1 25.99 1 26.98 1 28 C0.34 28 -0.32 28 -1 28 C-3.08706809 23.72608367 -3.33433478 19.7976435 -3.3125 15.125 C-3.32861328 14.44308594 -3.34472656 13.76117188 -3.36132812 13.05859375 C-3.36613374 8.01269757 -2.2362765 4.51975673 0 0 Z " fill="#C0392E" transform="translate(578,263)"/>
<path d="M0 0 C0.66 0.33 1.32 0.66 2 1 C0.515 3.475 0.515 3.475 -1 6 C6.26 6.33 13.52 6.66 21 7 C21.33 6.01 21.66 5.02 22 4 C22.66 5.32 23.32 6.64 24 8 C14.1 8 4.2 8 -6 8 C-2.625 2.375 -2.625 2.375 0 0 Z " fill="#FEE0DA" transform="translate(674,261)"/>
<path d="M0 0 C3.14480675 2.94259079 5.49230126 6.00060534 7.8125 9.625 C8.43769531 10.58664062 9.06289062 11.54828125 9.70703125 12.5390625 C10.13371094 13.35117187 10.56039062 14.16328125 11 15 C10.67 15.66 10.34 16.32 10 17 C7 15 7 15 6.3125 12.375 C6.209375 11.59125 6.10625 10.8075 6 10 C3.69 10 1.38 10 -1 10 C-1 7.15321219 -0.56919095 4.77480587 0 2 C0 1.34 0 0.68 0 0 Z " fill="#CC3327" transform="translate(195,269)"/>
<path d="M0 0 C2.5 0.125 2.5 0.125 3.5 1.125 C3.54080783 3.12458364 3.54254356 5.12545254 3.5 7.125 C1.125 7.75 1.125 7.75 -1.5 8.125 C-3.5 6.125 -3.5 6.125 -3.6875 3.5625 C-3.4324847 0.24730106 -3.33009823 0.16650491 0 0 Z " fill="#C73025" transform="translate(14.5,363.875)"/>
<path d="M0 0 C0 3 0 3 -0.97412109 5.69970703 C-2.13863596 9.44599736 -2.34911674 12.92034247 -2.4140625 16.8046875 C-2.43342865 17.5286673 -2.4527948 18.25264709 -2.4727478 18.99856567 C-2.53209886 21.29059398 -2.57874878 23.58267374 -2.625 25.875 C-2.66322087 27.43752081 -2.70227494 29.00002148 -2.7421875 30.5625 C-2.83776308 34.37483465 -2.92195606 38.1872678 -3 42 C-3.33 42 -3.66 42 -4 42 C-4.07443657 37.12535909 -4.12873667 32.25105272 -4.16479492 27.37597656 C-4.17983465 25.71934237 -4.20027177 24.06274769 -4.22631836 22.40625 C-4.26291515 20.0181297 -4.27977439 17.63053812 -4.29296875 15.2421875 C-4.30845261 14.50757294 -4.32393646 13.77295837 -4.33988953 13.01608276 C-4.3414305 8.25380432 -3.46521579 5.0667291 -1 1 C-0.67 0.67 -0.34 0.34 0 0 Z " fill="#FFF2EF" transform="translate(356,266)"/>
<path d="M0 0 C0.66 0.33 1.32 0.66 2 1 C0.68 2.65 -0.64 4.3 -2 6 C5.92 6.33 13.84 6.66 22 7 C22.33 6.34 22.66 5.68 23 5 C23.33 5.99 23.66 6.98 24 8 C14.1 8 4.2 8 -6 8 C-2.625 2.375 -2.625 2.375 0 0 Z " fill="#FFE6DF" transform="translate(398,261)"/>
<path d="M0 0 C4.70588235 0.70588235 4.70588235 0.70588235 6 2 C6.125 4.5 6.125 4.5 6 7 C5 8 5 8 2.5 8.125 C0 8 0 8 -1 7 C-1.125 4 -1.125 4 -1 1 C-0.67 0.67 -0.34 0.34 0 0 Z " fill="#C62E21" transform="translate(707,174)"/>
<path d="M0 0 C0.99 0.66 1.98 1.32 3 2 C-0.97863258 6.39743601 -6.39466924 9.707998 -12.36328125 10.19140625 C-16.99610905 10.29435798 -20.81420146 10.23242589 -25 8 C-24.67 7.34 -24.34 6.68 -24 6 C-23.319375 6.33 -22.63875 6.66 -21.9375 7 C-15.43638262 9.21314634 -10.89987858 7.83648009 -5 5 C-4.01 4.67 -3.02 4.34 -2 4 C-0.79117904 1.99983534 -0.79117904 1.99983534 0 0 Z " fill="#C4382D" transform="translate(699,288)"/>
<path d="M0 0 C2.72474463 0.72408728 4.55670083 1.5697761 7 3 C7 3.33 7 3.66 7 4 C5.02 4 3.04 4 1 4 C1 3.34 1 2.68 1 2 C-5.27 2 -11.54 2 -18 2 C-12.77772632 -1.48151579 -6.09602058 -0.44416623 0 0 Z " fill="#C1362C" transform="translate(476,247)"/>
<path d="M0 0 C3.36591866 1.44253657 5.51047079 3.33264727 8 6 C8.66 5.67 9.32 5.34 10 5 C11.32 6.32 12.64 7.64 14 9 C12.3125 10.1875 12.3125 10.1875 10 11 C5.17159874 9.14292259 2.58762037 5.2943487 0 1 C0 0.67 0 0.34 0 0 Z " fill="#CB2F25" transform="translate(578,292)"/>
<path d="M0 0 C0.99 0 1.98 0 3 0 C3 0.99 3 1.98 3 3 C3.66 3 4.32 3 5 3 C5.33 2.01 5.66 1.02 6 0 C6 1.65 6 3.3 6 5 C7.65 5 9.3 5 11 5 C11 5.66 11 6.32 11 7 C13.64 7 16.28 7 19 7 C19 7.33 19 7.66 19 8 C11.25189832 8.72790099 6.43441926 7.35178114 0 3 C0 2.01 0 1.02 0 0 Z " fill="#C73125" transform="translate(663,300)"/>
<path d="M0 0 C0.33 0 0.66 0 1 0 C1 2.31 1 4.62 1 7 C-2 7 -5 7 -8 7 C-8.33 5.02 -8.66 3.04 -9 1 C-5.64404172 1.59927826 -3.62198774 2.84622436 -1 5 C-0.67 3.35 -0.34 1.7 0 0 Z " fill="#CD3527" transform="translate(624,248)"/>
<path d="M0 0 C1.9375 0.8125 1.9375 0.8125 4 2 C5.04976964 5.14930893 5.10131595 7.38814456 5.0625 10.6875 C5.05347656 11.68136719 5.04445313 12.67523438 5.03515625 13.69921875 C5.02355469 14.45847656 5.01195312 15.21773437 5 16 C4.34 16 3.68 16 3 16 C3 16.99 3 17.98 3 19 C2.34 19 1.68 19 1 19 C1.16113281 18.4534375 1.32226562 17.906875 1.48828125 17.34375 C2.07045671 14.6772975 2.16876003 12.22853911 2.1875 9.5 C2.20167969 8.5615625 2.21585937 7.623125 2.23046875 6.65625 C1.99479903 3.94005663 1.38484654 2.32084954 0 0 Z " fill="#C33A2F" transform="translate(308,235)"/>
<path d="M0 0 C2.475 0.495 2.475 0.495 5 1 C5 3.31 5 5.62 5 8 C3.35 8 1.7 8 0 8 C0 5.36 0 2.72 0 0 Z " fill="#FCFBFA" transform="translate(471,363)"/>
<path d="M0 0 C2.97 0.33 5.94 0.66 9 1 C9 1.33 9 1.66 9 2 C8.33613281 2.12117188 7.67226563 2.24234375 6.98828125 2.3671875 C0.27473479 3.50786924 0.27473479 3.50786924 -6 6 C-6.33 6.99 -6.66 7.98 -7 9 C-7.33 8.34 -7.66 7.68 -8 7 C-8.66 7 -9.32 7 -10 7 C-10 6.34 -10 5.68 -10 5 C-8.02 4.67 -6.04 4.34 -4 4 C-4 3.34 -4 2.68 -4 2 C-2.68 2 -1.36 2 0 2 C0 1.34 0 0.68 0 0 Z " fill="#C63C2E" transform="translate(601,259)"/>
<path d="M0 0 C5.60159106 -0.28482666 8.24685562 -0.12706867 13 3 C16.19395026 3.71401232 16.19395026 3.71401232 19 4 C18.01 5.485 18.01 5.485 17 7 C12.2815534 5.16504854 12.2815534 5.16504854 10.1875 3.9375 C6.86926622 2.51539981 3.58514351 2.35851435 0 2 C0 1.34 0 0.68 0 0 Z " fill="#C23B31" transform="translate(464,257)"/>
<path d="M0 0 C1.03930664 0.01353516 1.03930664 0.01353516 2.09960938 0.02734375 C3.79572395 0.05073843 5.49165871 0.08660359 7.1875 0.125 C7.1875 0.455 7.1875 0.785 7.1875 1.125 C6.34445312 1.17398438 5.50140625 1.22296875 4.6328125 1.2734375 C3.53710938 1.34820312 2.44140625 1.42296875 1.3125 1.5 C-0.32332031 1.60441406 -0.32332031 1.60441406 -1.9921875 1.7109375 C-4.94296474 1.85753491 -4.94296474 1.85753491 -6.8125 4.125 C-8.9765625 4.5390625 -8.9765625 4.5390625 -11.4375 4.75 C-12.25476563 4.82476562 -13.07203125 4.89953125 -13.9140625 4.9765625 C-14.54054688 5.02554688 -15.16703125 5.07453125 -15.8125 5.125 C-11.41700865 0.0354837 -6.38519331 -0.15886605 0 0 Z " fill="#C03C32" transform="translate(604.8125,246.875)"/>
<path d="M0 0 C1.32 0 2.64 0 4 0 C4.10864945 2.06132142 4.18588321 4.12431321 4.25 6.1875 C4.29640625 7.33605469 4.3428125 8.48460937 4.390625 9.66796875 C3.92924572 13.60353399 2.70028512 15.17745787 0 18 C-0.66 17.67 -1.32 17.34 -2 17 C-1.71125 16.50371094 -1.4225 16.00742187 -1.125 15.49609375 C1.501523 10.68992145 2.45552263 7.4662716 2 2 C0.02 2.99 0.02 2.99 -2 4 C-2 3.34 -2 2.68 -2 2 C-1.34 2 -0.68 2 0 2 C0 1.34 0 0.68 0 0 Z " fill="#C84034" transform="translate(621,301)"/>
<path d="M0 0 C-3.3271712 2.47161289 -5.0791061 3.06882125 -9.29296875 2.75390625 C-12.54692502 2.23937663 -15.77368912 1.66536678 -19 1 C-19 0.67 -19 0.34 -19 0 C-16.20865148 -0.19425873 -13.41716313 -0.38069517 -10.625 -0.5625 C-9.8309375 -0.61857422 -9.036875 -0.67464844 -8.21875 -0.73242188 C-2.2265625 -1.11328125 -2.2265625 -1.11328125 0 0 Z " fill="#FEE4E0" transform="translate(479,309)"/>
<path d="M0 0 C5.94 0 11.88 0 18 0 C14 7 14 7 12 8 C12 6.35 12 4.7 12 3 C12.99 3 13.98 3 15 3 C15 2.34 15 1.68 15 1 C10.05 1 5.1 1 0 1 C0 0.67 0 0.34 0 0 Z " fill="#BC3125" transform="translate(202,216)"/>
<path d="M0 0 C0 0.66 0 1.32 0 2 C-0.66 2 -1.32 2 -2 2 C-2 2.66 -2 3.32 -2 4 C-2.99 4 -3.98 4 -5 4 C-5.103125 4.598125 -5.20625 5.19625 -5.3125 5.8125 C-6.08876455 8.28243264 -7.07088921 9.32251235 -9 11 C-9.33 9.68 -9.66 8.36 -10 7 C-8.71372289 5.82739389 -7.42080217 4.6620717 -6.125 3.5 C-5.04605469 2.52546875 -5.04605469 2.52546875 -3.9453125 1.53125 C-2 0 -2 0 0 0 Z " fill="#C63327" transform="translate(458,249)"/>
<path d="M0 0 C4.55015893 1.51671964 6.50057264 5.16891053 9 9 C8.67 9.66 8.34 10.32 8 11 C5 7.25 5 7.25 5 5 C3.02 5 1.04 5 -1 5 C-0.67 3.35 -0.34 1.7 0 0 Z " fill="#CA3B30" transform="translate(426,253)"/>
<path d="M0 0 C1.9375 0.3125 1.9375 0.3125 4 1 C4.33 1.99 4.66 2.98 5 4 C4.01 5.485 4.01 5.485 3 7 C3.31506627 10.14221967 3.31506627 10.14221967 4 13 C2 11.75 2 11.75 0 10 C0 8.68 0 7.36 0 6 C0.66 6 1.32 6 2 6 C1.34 4.02 0.68 2.04 0 0 Z " fill="#C92F24" transform="translate(187,250)"/>
<path d="M0 0 C0.99 0.33 1.98 0.66 3 1 C0.58509807 4.09107447 -0.54381009 4.93483001 -4.5 5.5 C-8 5 -8 5 -12 1 C-6.06 1.99 -6.06 1.99 0 3 C0 2.01 0 1.02 0 0 Z " fill="#BE3E32" transform="translate(559,232)"/>
<path d="M0 0 C0.66 0.66 1.32 1.32 2 2 C1.9765625 4.6015625 1.9765625 4.6015625 1.625 7.625 C1.51414062 8.62789063 1.40328125 9.63078125 1.2890625 10.6640625 C1.19367188 11.43492187 1.09828125 12.20578125 1 13 C0.34 13 -0.32 13 -1 13 C-1.02686553 11.02090602 -1.04633375 9.04171029 -1.0625 7.0625 C-1.07410156 5.96035156 -1.08570313 4.85820312 -1.09765625 3.72265625 C-1 1 -1 1 0 0 Z " fill="#C42C1E" transform="translate(311,362)"/>
<path d="M0 0 C3.3 0 6.6 0 10 0 C10 0.66 10 1.32 10 2 C7.36 2 4.72 2 2 2 C2.33 3.98 2.66 5.96 3 8 C2.34 8 1.68 8 1 8 C0.67 5.36 0.34 2.72 0 0 Z " fill="#C02C1F" transform="translate(427,358)"/>
<path d="M0 0 C0.99 0 1.98 0 3 0 C3.66 1.65 4.32 3.3 5 5 C4.34 5.66 3.68 6.32 3 7 C2.01 7 1.02 7 0 7 C-0.38133299 5.0085944 -0.71325582 3.00720923 -1 1 C-0.67 0.67 -0.34 0.34 0 0 Z " fill="#CD2617" transform="translate(13,174)"/>
<path d="M0 0 C1.65 0.33 3.3 0.66 5 1 C2.375 5.875 2.375 5.875 -1 7 C-0.67 4.69 -0.34 2.38 0 0 Z " fill="#CD3025" transform="translate(484,298)"/>
<path d="M0 0 C0.33 0 0.66 0 1 0 C1 3.3 1 6.6 1 10 C0.34 8.68 -0.32 7.36 -1 6 C-1.66 6.66 -2.32 7.32 -3 8 C-3.99 7.67 -4.98 7.34 -6 7 C-5.071875 6.1028125 -5.071875 6.1028125 -4.125 5.1875 C-1.86323046 2.99188856 -1.86323046 2.99188856 0 0 Z " fill="#F9C9C2" transform="translate(323,366)"/>
<path d="M0 0 C3.34373475 0.55728913 6.03312999 1.35173889 9 3 C8.34 4.65 7.68 6.3 7 8 C6.67 8 6.34 8 6 8 C6 6.35 6 4.7 6 3 C4.68 3 3.36 3 2 3 C2 2.34 2 1.68 2 1 C1.34 0.67 0.68 0.34 0 0 Z " fill="#C33A2F" transform="translate(702,290)"/>
<path d="M0 0 C0.99 0 1.98 0 3 0 C3.33 0.66 3.66 1.32 4 2 C4.99 2.66 5.98 3.32 7 4 C6.34 5.32 5.68 6.64 5 8 C4.16382818 6.8562364 3.33113541 5.70992861 2.5 4.5625 C2.0359375 3.92441406 1.571875 3.28632813 1.09375 2.62890625 C0 1 0 1 0 0 Z " fill="#C63626" transform="translate(654,291)"/>
<path d="M0 0 C4.875 4.625 4.875 4.625 6 8 C4 8 4 8 2.375 6.5 C1.92125 6.005 1.4675 5.51 1 5 C0.67 5.99 0.34 6.98 0 8 C0 5.36 0 2.72 0 0 Z " fill="#FCE0DA" transform="translate(172,262)"/>
<path d="M0 0 C0.33 0.99 0.66 1.98 1 3 C-0.14453125 5.04296875 -0.14453125 5.04296875 -1.8125 7.1875 C-2.62654297 8.26064453 -2.62654297 8.26064453 -3.45703125 9.35546875 C-3.96621094 9.89816406 -4.47539062 10.44085938 -5 11 C-5.66 11 -6.32 11 -7 11 C-5.22054913 6.95579349 -2.60470327 3.53921513 0 0 Z " fill="#FDE1DD" transform="translate(213,225)"/>
<path d="M0 0 C0.66 0.33 1.32 0.66 2 1 C0.02 3.31 -1.96 5.62 -4 8 C-4.66 7.67 -5.32 7.34 -6 7 C-4.02 4.69 -2.04 2.38 0 0 Z " fill="#FDDCD5" transform="translate(398,261)"/>
<path d="M0 0 C1.65 1.65 3.3 3.3 5 5 C3.68 5.99 2.36 6.98 1 8 C0.67 5.36 0.34 2.72 0 0 Z " fill="#C23329" transform="translate(484,251)"/>
<path d="M0 0 C1.32 0 2.64 0 4 0 C4 1.65 4 3.3 4 5 C2.68 4.67 1.36 4.34 0 4 C0 2.68 0 1.36 0 0 Z " fill="#D52413" transform="translate(707,365)"/>
<path d="M0 0 C2.97 0.495 2.97 0.495 6 1 C6.33 2.65 6.66 4.3 7 6 C2.32307692 4.52307692 2.32307692 4.52307692 0.6875 1.875 C0.460625 1.25625 0.23375 0.6375 0 0 Z " fill="#C6392E" transform="translate(449,273)"/>
<path d="M0 0 C0 3.42085146 -0.78105603 5.81720186 -2 9 C-2.66 9.66 -3.32 10.32 -4 11 C-3.56179109 6.44262737 -3.14958831 3.42346555 0 0 Z " fill="#F9D7D3" transform="translate(356,266)"/>
<path d="M0 0 C3.80984844 2.77079887 4.06840752 6.62868145 5 11 C2.65808437 8.8709858 1.16445046 6.95591271 0 4 C0 2.68 0 1.36 0 0 Z " fill="#C43C30" transform="translate(709,261)"/>
<path d="M0 0 C1.98 0 3.96 0 6 0 C6 0.66 6 1.32 6 2 C4.68 2 3.36 2 2 2 C2 2.66 2 3.32 2 4 C1.01 4 0.02 4 -1 4 C-0.67 2.68 -0.34 1.36 0 0 Z " fill="#DA2018" transform="translate(555,230)"/>
<path d="M0 0 C0.33 0 0.66 0 1 0 C1 2.97 1 5.94 1 9 C0.67 9 0.34 9 0 9 C0 7.35 0 5.7 0 4 C-0.66 4 -1.32 4 -2 4 C-2 4.66 -2 5.32 -2 6 C-2.66 5.67 -3.32 5.34 -4 5 C-2.69254251 3.31295807 -1.35827971 1.64639965 0 0 Z " fill="#C13A31" transform="translate(325,359)"/>
<path d="M0 0 C0.66 0.66 1.32 1.32 2 2 C0.25 4.0625 0.25 4.0625 -2 6 C-4.25 5.75 -4.25 5.75 -6 5 C-4.02 3.35 -2.04 1.7 0 0 Z " fill="#FCE4DF" transform="translate(632,326)"/>
<path d="M0 0 C4.455 1.98 4.455 1.98 9 4 C8.67 4.66 8.34 5.32 8 6 C5.03 5.505 5.03 5.505 2 5 C2 4.01 2 3.02 2 2 C1.34 2 0.68 2 0 2 C0 1.34 0 0.68 0 0 Z " fill="#C7382F" transform="translate(592,318)"/>
<path d="M0 0 C-4.77830905 2.91360308 -7.55106131 3.19876651 -13 2 C-13 1.67 -13 1.34 -13 1 C-11.20994059 0.63779734 -9.41787943 0.28547531 -7.625 -0.0625 C-6.12839844 -0.35833984 -6.12839844 -0.35833984 -4.6015625 -0.66015625 C-2 -1 -2 -1 0 0 Z " fill="#FCE0DA" transform="translate(616,308)"/>
<path d="M0 0 C0.33 0 0.66 0 1 0 C1.125 2.875 1.125 2.875 1 6 C0.34 6.66 -0.32 7.32 -1 8 C-1.99 7.67 -2.98 7.34 -4 7 C-2.68 4.69 -1.36 2.38 0 0 Z " fill="#CC4039" transform="translate(624,282)"/>
<path d="M0 0 C3.96 0.33 7.92 0.66 12 1 C12 1.33 12 1.66 12 2 C8.7 2.33 5.4 2.66 2 3 C1.34 2.01 0.68 1.02 0 0 Z " fill="#FFF6F1" transform="translate(675,309)"/>
<path d="M0 0 C0.66 0.33 1.32 0.66 2 1 C-0.625 5.875 -0.625 5.875 -4 7 C-3.43628586 3.73045798 -2.50037734 2.17424117 0 0 Z " fill="#FFEAE6" transform="translate(674,261)"/>
</svg>
